<?xml version="1.0" encoding="UTF-8"?>
<svg id="Layer_1" data-name="Layer 1" xmlns="http://www.w3.org/2000/svg" viewBox="0 0 80 80">
  <defs>
    <style>
      .cls-1 {
        fill: #f1f2f2;
        stroke-width: 0px;
      }
    </style>
  </defs>
  <path class="cls-1" d="M14.86,38.88c.05-.16.08-.21.08-.26.13-2.17.21-2.25,2.42-2.25,1.05,0,2.1,0,3.15,0,1.26,0,1.68.43,1.69,1.71,0,.23,0,.46,0,.74h14.16c0-.33,0-.66,0-.98.03-.97.5-1.45,1.46-1.46,1.39-.01,2.78,0,4.17,0,1.16,0,1.6.45,1.62,1.62,0,.26,0,.52,0,.82h14.16c0-.32,0-.65,0-.98.02-.97.49-1.46,1.45-1.47,1.39-.02,2.78,0,4.17,0,1.16,0,1.61.45,1.62,1.62,0,.26,0,.52,0,.88.83,0,1.61,0,2.39,0,4.38.02,7.51,2.94,7.75,7.32.09,1.65.09,3.31-.01,4.95-.26,4.23-3.37,7.15-7.61,7.23-.1,0-.21,0-.31,0-18.15,0-36.3,0-54.45,0-3.69,0-6.53-1.96-7.58-5.23-.15-.47-.29-.97-.3-1.46-.04-2.02-.14-4.04,0-6.05.25-3.73,3.41-6.65,7.15-6.75.94-.03,1.88,0,2.85,0ZM39.98,56.74c7.79,0,15.58,0,23.37,0,1.57,0,3.15.04,4.72-.03,2.94-.14,5.33-2.57,5.44-5.5.06-1.47.03-2.94.02-4.41,0-3.9-2.44-6.32-6.34-6.33-6.61,0-13.22,0-19.83,0-11.62,0-23.24,0-34.86,0-3.04,0-5.46,1.9-5.98,4.76-.17.92-.11,1.88-.11,2.82,0,1.28-.09,2.59.1,3.85.45,2.91,2.93,4.83,6.07,4.83,9.13,0,18.26,0,27.38,0Z"/>
  <path class="cls-1" d="M39.18,30.88c-3.61,0-7.1,0-10.59.02-.21,0-.52.29-.61.52-.67,1.7-1.31,3.42-1.95,5.14-.2.53-.44,1.03-1.11.8-.72-.24-.61-.8-.39-1.36.63-1.66,1.24-3.33,1.89-5.07-.29-.02-.51-.05-.73-.05-3.25,0-6.51.01-9.76-.02-.51,0-.81.16-1.08.58-1.17,1.77-2.37,3.52-3.56,5.28-.33.48-.69.97-1.33.55-.63-.41-.37-.93-.04-1.43,2.81-4.15,5.61-8.3,8.41-12.45.81-1.2,1.89-1.79,3.37-1.79,12.28.02,24.55.02,36.83,0,1.44,0,2.54.55,3.32,1.74,2.78,4.2,5.54,8.4,8.31,12.6.3.46.44.96-.09,1.31-.58.39-.96.03-1.29-.46-1.19-1.82-2.39-3.64-3.61-5.44-.15-.22-.47-.47-.71-.47-3.51-.03-7.03-.02-10.65-.02.61,1.65,1.2,3.24,1.79,4.83.07.2.16.39.22.59.14.5.03.98-.5,1.04-.31.04-.85-.22-.98-.49-.46-.97-.78-2-1.16-3-.37-.98-.74-1.96-1.11-2.94h-11.31c0,.98,0,1.94,0,2.9,0,.26.09.57-.02.78-.18.32-.45.74-.75.81-.51.11-.81-.29-.81-.82-.01-1.2,0-2.4,0-3.7ZM16.33,29.28c3.56,0,6.91,0,10.26-.02.21,0,.53-.28.62-.51.41-.96.75-1.95,1.12-2.93.3-.82.61-1.64.94-2.54-2.8,0-5.47-.04-8.14.04-.47.02-1.03.49-1.37.89-.61.74-1.09,1.6-1.63,2.4-.56.84-1.13,1.68-1.8,2.66ZM50.95,23.27c.7,1.88,1.39,3.66,2.02,5.45.16.45.39.58.85.58,3.12-.02,6.23,0,9.35-.01.16,0,.32-.05.55-.08-1.14-1.74-2.22-3.4-3.32-5.06-.42-.64-1.04-.91-1.82-.87-.76.03-1.52,0-2.28,0-1.75,0-3.5,0-5.36,0ZM51.47,29.26c-.7-1.86-1.38-3.61-2-5.38-.17-.49-.42-.62-.91-.62-2.36.02-4.71,0-7.07.01-.22,0-.45.04-.65.06v5.93h10.63ZM39.15,23.27c-2.27,0-4.47,0-6.66,0q-1.47,0-2,1.4c-.56,1.51-1.13,3.02-1.7,4.56h10.36v-5.96Z"/>
  <path class="cls-1" d="M40.01,42.52c7.63,0,15.27,0,22.9,0,2,0,2.81.81,2.81,2.82,0,2.23,0,4.46,0,6.69,0,1.8-.84,2.66-2.65,2.66-15.4,0-30.79,0-46.19,0-1.8,0-2.64-.85-2.65-2.66-.01-2.28-.01-4.56,0-6.85,0-1.84.86-2.66,2.73-2.66,7.69,0,15.37,0,23.06,0ZM39.98,53.08c7.68,0,15.37,0,23.05,0,.94,0,1.06-.11,1.06-1.03,0-2.28,0-4.56,0-6.84,0-.93-.14-1.07-1.03-1.07-15.39,0-30.79,0-46.18,0-.73,0-1.04.26-1.03,1.01.03,2.2,0,4.41,0,6.61,0,1.32.02,1.34,1.31,1.34,7.6,0,15.21,0,22.81,0Z"/>
  <path class="cls-1" d="M8.46,48.58c.01-1.03.82-1.82,1.85-1.83,1.06,0,1.88.83,1.87,1.89-.02,1.02-.84,1.84-1.85,1.85-1.04,0-1.88-.86-1.86-1.91Z"/>
  <path class="cls-1" d="M67.77,48.58c.01-1.06.86-1.86,1.93-1.83,1.03.03,1.8.85,1.79,1.88-.01,1.02-.83,1.84-1.84,1.85-1.04,0-1.89-.85-1.87-1.9Z"/>
  <path class="cls-1" d="M35.3,48.41c.77.37,1.05,1.01.87,1.81-.19.86-.86,1.28-1.66,1.33-.71.05-1.45-.06-2.14-.25-.25-.07-.57-.58-.54-.85.06-.52.53-.42.94-.34.46.08.93.19,1.38.14.2-.02.46-.38.5-.63.02-.13-.34-.39-.57-.48-.23-.09-.56.04-.77-.07-.23-.13-.49-.4-.52-.64-.02-.16.31-.41.52-.54.14-.08.4.04.53-.05.25-.17.44-.42.65-.64-.25-.18-.49-.48-.76-.51-.34-.04-.71.21-1.06.21-.26,0-.66-.15-.73-.34-.08-.2.09-.66.28-.76,1-.52,2.06-.65,3.08-.06.97.57.97,1.63-.01,2.68Z"/>
  <path class="cls-1" d="M47.23,48.4c.73.39,1.03.96.9,1.72-.13.79-.67,1.31-1.42,1.36-.81.06-1.65-.03-2.45-.2-.22-.04-.34-.58-.5-.89.31-.1.62-.26.94-.27.46,0,.93.17,1.38.12.2-.02.46-.38.51-.62.02-.13-.33-.39-.55-.49-.23-.09-.56.03-.77-.08-.23-.13-.49-.4-.52-.63-.02-.16.31-.41.52-.54.14-.08.4.03.53-.05.25-.17.44-.42.65-.63-.25-.18-.48-.48-.75-.52-.31-.05-.66.2-.98.19-.29,0-.57-.19-.86-.29.12-.28.16-.7.37-.81.89-.48,1.85-.58,2.8-.16,1.15.51,1.26,1.73.21,2.8Z"/>
  <path class="cls-1" d="M29.04,50.24c.41,0,.82,0,1.23,0,.44,0,.88.03.89.62.02.59-.39.66-.85.65-.86,0-1.73.02-2.59-.02-.28-.01-.73-.15-.77-.32-.08-.3-.02-.74.17-1,.36-.51.85-.92,1.27-1.38.26-.29.56-.57.74-.91.13-.25.2-.69.07-.86-.17-.21-.57-.31-.88-.32-.27-.01-.55.21-.82.21-.24,0-.65-.12-.69-.28-.06-.23.03-.64.22-.79.71-.61,2.35-.64,3.14-.13.8.52.97,1.66.36,2.67-.2.33-.47.63-.74.91-.25.26-.55.48-.83.72.03.08.06.15.1.23Z"/>
  <path class="cls-1" d="M51.15,50.25c.64,0,1.14-.07,1.61.03.24.05.42.4.63.61-.21.21-.41.57-.64.59-.94.07-1.88.06-2.82.02-.27-.01-.69-.17-.76-.36-.09-.27-.01-.7.16-.93.41-.54.91-1.01,1.38-1.5.13-.13.31-.25.36-.41.15-.43.25-.89.37-1.33-.46-.06-.93-.21-1.37-.14-.45.07-.91.32-1.1-.29-.19-.58.28-.8.72-.93.42-.13.86-.22,1.3-.24.76-.02,1.49.13,1.89.87.43.77.27,1.55-.2,2.22-.42.59-.95,1.1-1.54,1.78Z"/>
  <path class="cls-1" d="M23.23,50.25v-2.72c-.5-.09-1.14-.04-1.3-.28-.43-.7.32-.9.74-1.19.32-.22.66-.43,1.03-.57.71-.28,1.14,0,1.15.76.02,1.31,0,2.61,0,3.97.29.02.56-.04.73.07.23.14.52.4.52.61,0,.2-.32.58-.52.59-1.04.06-2.1.06-3.14,0-.2-.01-.57-.41-.54-.56.05-.25.33-.51.58-.65.17-.1.46-.02.75-.02Z"/>
  <path class="cls-1" d="M55.78,50.21v-2.97c-.23.12-.39.27-.54.26-.27-.03-.67-.09-.76-.27-.1-.19,0-.65.18-.79.49-.38,1.04-.71,1.61-.96.69-.3,1.13,0,1.14.76.02,1.3,0,2.61,0,3.96.29.02.56-.04.74.07.23.14.52.41.52.62,0,.2-.33.57-.52.59-1.04.06-2.09.06-3.14,0-.2-.01-.57-.4-.54-.56.04-.25.33-.5.57-.65.18-.11.46-.04.74-.05Z"/>
  <path class="cls-1" d="M61.95,44.79c.21.33.57.65.6,1,.05.48-.33.83-.84.8-.5-.03-.88-.36-.77-.86.07-.35.44-.63.67-.95l.34.02Z"/>
  <path class="cls-1" d="M18.06,46.72c-.22-.33-.63-.66-.62-.98,0-.29.43-.73.74-.8.48-.12.91.25.84.77-.05.35-.39.67-.6,1-.12,0-.24,0-.36,0Z"/>
  <path class="cls-1" d="M18.38,50.24c.22.32.58.61.64.95.1.52-.3.9-.79.8-.31-.06-.75-.46-.78-.75-.03-.31.35-.66.55-.99.13,0,.26,0,.39-.01Z"/>
  <path class="cls-1" d="M62.71,51.33c-.32.23-.64.64-.96.65-.28,0-.72-.41-.81-.72-.14-.49.22-.91.74-.86.36.04.68.37,1.02.57,0,.12.01.24.02.36Z"/>
</svg>