<?xml version="1.0" encoding="UTF-8"?>
<svg id="Layer_1" data-name="Layer 1" xmlns="http://www.w3.org/2000/svg" viewBox="0 0 80 80">
  <defs>
    <style>
      .cls-1 {
        fill: #f1f2f2;
        stroke-width: 0px;
      }
    </style>
  </defs>
  <path class="cls-1" d="M6.52,28.68c.59-1.68,1.79-2.31,3.53-2.24,1.32.05,2.63.03,3.76.82.53.37.99.82,1.53,1.27.08-.16.19-.34.28-.52,1.3-2.71,2.58-5.42,3.9-8.11,1.04-2.12,2.79-3.15,5.15-3.15,3.72,0,7.45,0,11.17,0,4.23,0,8.45.03,12.68,0,2.65-.02,4.48,1.15,5.58,3.53.29.63.64,1.24.92,1.87.15.33.33.45.7.39,2.67-.43,5.2.09,7.62,1.22,2.38,1.11,4.77,2.22,7.13,3.38,1.96.96,2.97,2.56,2.98,4.75.01,3.57-.06,7.15.02,10.72.13,5.91-2.14,10.74-6.37,14.75-2.63,2.5-5.67,4.39-9.01,5.8-.35.15-.88.15-1.24,0-4.42-1.87-8.23-4.59-11.26-8.35-.19-.24-.54-.49-.81-.49-6.71-.03-13.42-.02-20.13-.02-.09,0-.17.01-.35.03,0,.56,0,1.11,0,1.67-.01,2.34-1.6,3.93-3.94,3.94-1.22,0-2.44.01-3.66,0-2.16-.03-3.75-1.61-3.78-3.76-.02-1.39.01-2.79-.02-4.18,0-.3-.12-.64-.3-.88-1.47-1.94-2.23-4.11-2.21-6.55.02-1.89.02-3.79,0-5.68-.02-1.99.38-3.85,1.66-5.6-.74,0-1.37-.04-2.01,0-1.74.13-2.94-.56-3.53-2.23v-2.35ZM41.65,33.61c-.18-.02-.28-.04-.39-.04-8.87,0-17.73,0-26.6.01-.22,0-.51.14-.65.31-.84.97-1.46,2.08-1.6,3.37-.11.99-.13,2-.12,3,.01,1.89-.06,3.8.14,5.67.32,2.94,2.88,6.36,7.2,6.3,7.82-.11,15.64-.03,23.46-.03h.77c-.4-.94-.81-1.8-1.13-2.69-.16-.46-.4-.57-.85-.57-3.75.02-7.49,0-11.24,0-.2,0-.39.02-.59-.01-.57-.08-.9-.4-.92-1-.01-.59.31-.94.86-1.06.21-.05.43-.02.65-.02,3.55,0,7.1,0,10.65,0h.74c-.1-.68-.2-1.31-.3-1.98h-.76c-3.44,0-6.88,0-10.32,0-.22,0-.44.01-.65-.02-.57-.1-.89-.45-.87-1.04.02-.59.34-.92.91-1.01.21-.03.43-.01.65-.01,3.4,0,6.8,0,10.19,0h.76v-9.18ZM41.64,31.55c.17-2.21,1.3-3.65,3.22-4.54,1.14-.53,2.28-1.07,3.42-1.61,1.64-.77,3.28-1.55,4.96-2.34-.28-.59-.56-1.13-.8-1.69-.75-1.81-2.08-2.56-4.04-2.55-7.75.04-15.5.02-23.25.02-.28,0-.57,0-.85.02-1.39.08-2.37.77-2.97,2.01-1.45,3.02-2.9,6.04-4.35,9.05-.26.54-.55,1.06-.84,1.63h25.5ZM43.77,38.06h0c0,1.83,0,3.66,0,5.49,0,2.57.61,5.01,1.81,7.28,2.57,4.89,6.66,8.06,11.65,10.2.23.1.6.04.85-.07,2.11-.92,4.04-2.12,5.86-3.51,4.78-3.66,7.35-8.52,7.61-14.5.17-3.72.04-7.45.02-11.17,0-1.31-.71-2.22-1.85-2.77-2.55-1.22-5.1-2.45-7.68-3.61-2.89-1.31-5.83-1.32-8.73,0-2.6,1.17-5.16,2.41-7.74,3.63-1.22.58-1.84,1.53-1.82,2.91.03,2.05,0,4.1,0,6.14ZM22.21,54.18c-2.51-.03-5.01.28-7.3-1.17,0,1.17-.04,2.21.01,3.25.05.84.7,1.45,1.48,1.46,1.39.01,2.79.02,4.18,0,.91-.02,1.57-.65,1.62-1.55.04-.63,0-1.26,0-1.98ZM11.47,31.28c.63,0,1.26.01,1.89,0,.69-.02.88-.38.55-.97-.82-1.47-2.12-1.85-3.7-1.77-1.58.07-1.61.05-1.59,1.62,0,.83.31,1.12,1.15,1.13.57,0,1.13,0,1.7,0Z"/>
  <path class="cls-1" d="M20.87,43.86c-1.26,0-2.53.06-3.78-.02-1.46-.09-2.07-.83-2.08-2.3,0-.7-.02-1.39,0-2.09.05-1.45,1.35-2.51,2.77-2.22,1.85.38,3.7.77,5.54,1.2,1.94.46,3.15,2.37,2.82,4.33-.11.62-.54,1.04-1.36,1.08-1.3.06-2.61.02-3.91.02ZM16.98,41.77h7.09c-.2-.83-.67-1.34-1.43-1.51-1.67-.38-3.36-.73-5.03-1.1-.46-.1-.64.07-.63.53.02.65,0,1.3,0,2.08Z"/>
  <path class="cls-1" d="M68.27,38.29c0,2.09.11,4.19-.02,6.27-.23,3.81-2.1,6.85-4.82,9.41-1.53,1.44-3.24,2.64-5.12,3.57-.38.19-1,.29-1.35.11-3.71-1.88-6.84-4.4-8.81-8.16-.99-1.88-1.46-3.91-1.47-6.03-.02-3.57,0-7.14-.01-10.72,0-.68.3-1.1.89-1.38,2.26-1.07,4.5-2.18,6.78-3.22,2.11-.96,4.27-.95,6.39,0,2.26,1.02,4.49,2.11,6.74,3.14.64.29.9.74.89,1.43-.02,1.85,0,3.7,0,5.55h-.07ZM66.35,39.05c0-1.83-.01-3.66,0-5.49,0-.38-.13-.58-.47-.74-1.91-.9-3.8-1.83-5.7-2.74-1.66-.79-3.37-.86-5.05-.08-2.03.93-4.05,1.92-6.05,2.92-.18.09-.31.44-.31.67-.02,3.29-.03,6.58,0,9.86.01,2.35.69,4.5,2.02,6.44,1.67,2.43,3.94,4.16,6.48,5.56.17.09.5.05.69-.06,1.88-1.04,3.58-2.32,5.03-3.9,2.23-2.43,3.43-5.26,3.36-8.59-.03-1.28,0-2.57,0-3.85Z"/>
  <path class="cls-1" d="M56.62,45.49c1.28-1.67,2.53-3.28,3.77-4.9.44-.57.87-1.15,1.32-1.71.46-.58,1.16-.74,1.6-.38.46.38.5,1.07.07,1.64-1.84,2.4-3.68,4.81-5.53,7.2-.58.75-1.16.82-1.9.25-1.16-.88-2.32-1.77-3.48-2.66-.66-.51-.84-1.09-.51-1.55.41-.57,1.11-.61,1.78-.1.95.72,1.9,1.45,2.88,2.2Z"/>
</svg>