<?xml version="1.0" encoding="utf-8"?>
<!-- Generator: Adobe Illustrator 28.2.0, SVG Export Plug-In . SVG Version: 6.00 Build 0)  -->
<svg version="1.1" id="Layer_1" xmlns="http://www.w3.org/2000/svg" xmlns:xlink="http://www.w3.org/1999/xlink" x="0px" y="0px"
	 viewBox="0 0 80 80" style="enable-background:new 0 0 80 80;" xml:space="preserve">
<style type="text/css">
	.st0{opacity:8.000000e-02;}
</style>
<g>
	<defs>
		<rect id="SVGID_1_" x="-200" width="80" height="80"/>
	</defs>
	<clipPath id="SVGID_00000044887991099276533240000014402058486556578477_">
		<use xlink:href="#SVGID_1_"  style="overflow:visible;"/>
	</clipPath>
	
		<g transform="matrix(1 0 0 1 -1.525879e-05 0)" style="clip-path:url(#SVGID_00000044887991099276533240000014402058486556578477_);">
		
			<image style="overflow:visible;" width="5299" height="3348" xlink:href="../../../../Downloads/female-driver-hand-holding-phone-with-interface-navigator-screen.jpg"  transform="matrix(2.389486e-02 0 0 2.389486e-02 -233.1445 0)">
		</image>
	</g>
</g>
<rect x="-200" class="st0" width="80.3" height="80.3"/>
<g>
	<defs>
		<rect id="SVGID_00000048472642409095070810000007353822537178751405_" x="-100" width="80" height="80"/>
	</defs>
	<clipPath id="SVGID_00000152951179768824165440000010484523686292889475_">
		<use xlink:href="#SVGID_00000048472642409095070810000007353822537178751405_"  style="overflow:visible;"/>
	</clipPath>
	<g style="clip-path:url(#SVGID_00000152951179768824165440000010484523686292889475_);">
		
			<image style="overflow:visible;" width="3840" height="5760" xlink:href="../../../../Downloads/mechanic-using-touchscreen-device (1).jpg"  transform="matrix(2.091242e-02 0 0 2.091242e-02 -100.1519 -10.5)">
		</image>
	</g>
</g>
<rect x="-100.2" y="-0.2" class="st0" width="80.3" height="80.3"/>
<g>
	<defs>
		<rect id="SVGID_00000159445031652036818790000015032829617832293021_" width="80" height="80"/>
	</defs>
	<clipPath id="SVGID_00000052826900569361627570000016534228660324209337_">
		<use xlink:href="#SVGID_00000159445031652036818790000015032829617832293021_"  style="overflow:visible;"/>
	</clipPath>
	
		<g transform="matrix(1 0 0 1 0 -3.725290e-09)" style="clip-path:url(#SVGID_00000052826900569361627570000016534228660324209337_);">
		
			<image style="overflow:visible;" width="6048" height="4024" xlink:href="../../../../Downloads/closeup-remote-control-button.jpg"  transform="matrix(1.992875e-02 0 0 1.992875e-02 -31.1992 -4.869635e-02)">
		</image>
	</g>
</g>
</svg>
