<?xml version="1.0" encoding="UTF-8"?>
<svg id="Layer_1" data-name="Layer 1" xmlns="http://www.w3.org/2000/svg" viewBox="0 0 64 64">
  <defs>
    <style>
      .cls-1 {
        fill: #fff;
        stroke-width: 0px;
      }
    </style>
  </defs>
  <path class="cls-1" d="M38.35,52.4c-.69,3.84-3.62,5.49-6.05,5.57-1.63.06-3.08-.44-4.33-1.49-1.25-1.05-1.95-2.41-2.21-4.07-.25.11-.46.19-.65.3-2.24,1.16-4.53,2.21-7.04,2.63-1.03.17-1.8.51-2.56,1.31-1.89,2-5.13,1.73-6.89-.41-1.73-2.11-1.3-5.25.92-6.85.19-.14.42-.37.44-.58.22-2.21.93-4.27,1.82-6.27,1.37-3.08,3.16-5.92,5.17-8.61.3-.41.37-.71.12-1.17-.34-.63-.57-1.32-.86-2.02-.71.31-1.44.49-2.23.32-2.25-.51-3.24-3.13-1.85-4.97.22-.29.2-.49.06-.78-.97-2-1.77-4.07-2.13-6.28-.19-1.19-.24-2.39.03-3.58.52-2.26,2.21-3.73,4.53-3.98,2.2-.24,4.29.25,6.33.99.48.17.81.14,1.23-.18,5.91-4.41,13.98-4.37,19.85.1.3.23.53.26.88.13,1.42-.54,2.88-.93,4.39-1.08.2-.02.44-.19.57-.37,1.25-1.75,3.41-2.49,5.41-1.82,2,.67,3.33,2.56,3.24,4.69-.07,1.56-.79,2.79-2.04,3.71-.16.12-.35.33-.37.52-.3,2.88-1.38,5.5-2.68,8.05-1.24,2.44-2.73,4.73-4.37,6.92-.2.27-.22.45,0,.72.46.6.87,1.24,1.33,1.84.1.13.35.24.5.22,1.26-.19,2.5.34,3.19,1.42.69,1.09.67,2.49-.12,3.52-.24.32-.24.54-.08.87.98,2,1.77,4.07,2.12,6.28.19,1.18.23,2.35-.04,3.53-.52,2.26-2.2,3.73-4.51,4-2.48.29-4.8-.36-7.07-1.25-1.21-.47-2.36-1.08-3.54-1.63-.16-.07-.32-.15-.52-.24ZM38.37,42.15c0-.71.03-1.4,0-2.08-.04-.61.2-.97.74-1.25,2.23-1.16,4.03-2.82,5.45-4.9.24-.35.2-.57-.05-.88-3-3.75-6.32-7.19-9.96-10.32-.81-.69-1.64-1.35-2.45-2.02-.11.08-.17.11-.22.15-4.62,3.62-8.74,7.74-12.38,12.35-.2.25-.15.41,0,.64,1.42,2.14,3.26,3.82,5.54,5.01.5.26.73.59.71,1.17-.04.71,0,1.43,0,2.14h3.13c.01-.09.02-.15.02-.21,0-3.67,0-7.34,0-11.01,0-.18-.13-.4-.26-.54-.61-.62-1.24-1.22-1.84-1.81.4-.41.74-.78,1.12-1.18.71.72,1.39,1.43,2.1,2.11.33.32.48.67.47,1.13-.01,3.65,0,7.31,0,10.96v.53h3.16v-.57c0-3.65,0-7.31,0-10.96,0-.25.02-.58.17-.74.79-.83,1.63-1.61,2.46-2.42.34.34.69.68,1.11,1.09-.29.27-.54.56-.84.78-1.09.79-1.4,1.82-1.35,3.17.11,3.04.03,6.09.03,9.13v.52h3.16ZM41.11,52.01c.65.28,1.24.55,1.85.79,1.82.7,3.67,1.26,5.65,1.22,1.86-.04,3.21-.84,3.64-2.32.24-.83.33-1.75.27-2.62-.15-2.4-1.05-4.59-2.06-6.75-.12-.25-.26-.28-.51-.22-.71.17-1.38.03-2-.31-1.76-.94-2.22-3.13-1.01-4.74.09-.12.21-.36.15-.44-.38-.6-.81-1.18-1.25-1.81-1.52,2.23-3.41,3.96-5.69,5.26-.1.06-.19.22-.2.34-.02.57,0,1.15,0,1.71,1.2.28,1.58.77,1.58,1.98,0,.25,0,.49,0,.74,0,1.34-.29,1.74-1.56,2.12v.7c.75.11,1.39.46,1.49,1.22.12,1.02.31,2.1-.34,3.12ZM24.15,42.13c0-.55-.02-1.06,0-1.56.02-.31-.11-.46-.37-.61-1.52-.86-2.87-1.93-4.02-3.23-.53-.6-1.01-1.23-1.55-1.88-2.95,4.2-5.7,8.47-6.66,13.69,1.63-.16,2.98.26,4.09,1.36,1.11,1.1,1.5,2.47,1.37,4.04,2.13-.3,4.07-1.04,6-1.95-.62-.71-.43-1.52-.44-2.3-.02-1.26.35-1.72,1.55-2.03v-.72c-1.13-.23-1.56-.76-1.56-1.88,0-.33,0-.66,0-.99,0-1.17.4-1.68,1.58-1.93ZM30.66,19.6s-.04,0-.09-.05c-2.57-1.87-5.25-3.56-8.16-4.87-.34-.15-.54-.14-.8.13-3.84,3.9-5.27,8.54-4.22,13.92.21,1.08.63,2.12.95,3.15,2.02-2.19,3.91-4.37,5.95-6.4,2.04-2.03,4.22-3.91,6.38-5.88ZM45.69,31.81s.03-.03.06-.09c2.58-5.77,1.32-12.56-3.37-17.02-.2-.19-.35-.19-.56-.07-1.31.69-2.65,1.31-3.92,2.07-1.54.92-3.01,1.94-4.47,2.88,2.18,2,4.37,3.87,6.4,5.9,2.03,2.03,3.92,4.21,5.86,6.32ZM23.43,13.35c1.44.8,2.89,1.55,4.27,2.4,1.4.86,2.74,1.82,4.09,2.76.26.18.4.07.59-.06,2.04-1.32,4.08-2.65,6.14-3.94.69-.43,1.45-.76,2.18-1.13-4.92-3.72-12.3-3.77-17.27-.03ZM20.3,13.86c-1.63-.56-3.23-.98-4.91-.9-2.15.1-3.39,1.1-3.75,2.96-.08.43-.13.88-.12,1.32.07,2.68,1.04,5.1,2.17,7.47.04.08.17.16.26.16.5-.01,1-.05,1.54-.09.23-4.19,1.83-7.85,4.81-10.93ZM43.76,13.8c3.87,4.11,5.42,8.85,4.73,14.33,1.84-3.02,3.43-6.12,4.02-9.71-1.6.15-2.96-.26-4.06-1.37-1.1-1.1-1.5-2.47-1.35-4.11-1.14.29-2.2.56-3.33.85ZM51.82,16.88c1.74,0,3.16-1.44,3.14-3.19-.01-1.72-1.43-3.13-3.15-3.13-1.75,0-3.17,1.42-3.17,3.16,0,1.74,1.43,3.16,3.17,3.16ZM15.45,53.24c0-1.74-1.42-3.17-3.17-3.17-1.72,0-3.14,1.41-3.15,3.13-.01,1.75,1.4,3.18,3.14,3.19,1.74,0,3.18-1.41,3.18-3.15ZM27.42,52.46c.31,2.28,2.45,4,4.83,3.93,2.2-.07,4.29-1.92,4.43-3.93h-9.25ZM39.93,43.79h-15.74v1.52h15.74v-1.52ZM39.93,49.32h-15.74v1.52h15.74v-1.52ZM25.75,47.67h12.6v-.73h-12.6v.73ZM49.43,37.43c-.86,0-1.57.71-1.57,1.57,0,.86.7,1.58,1.56,1.59.88.01,1.61-.72,1.6-1.6,0-.86-.73-1.56-1.58-1.56ZM14.64,26.37c-.67,0-1.25.44-1.47,1.11-.21.63,0,1.3.54,1.72.53.41,1.25.47,1.79.07.14-.11.26-.36.25-.55-.03-.51-.14-1.01-.19-1.51-.07-.68-.23-.85-.91-.84Z"/>
</svg>